# Made in Blockbench 5.0.7
mtllib vics-tree.mtl

o cone
v 0 0.75 0
v 0 1.25 0
v 0.13397459621556132 0.25 0.49999999999999994
v 0.3660254037844386 0.25 0.36602540378443865
v 0.49999999999999994 0.25 0.13397459621556132
v 0.49999999999999994 0.25 -0.13397459621556138
v 0.36602540378443865 0.25 -0.3660254037844386
v 0.1339745962155615 0.25 -0.4999999999999999
v -0.13397459621556113 0.25 -0.5
v -0.3660254037844386 0.25 -0.3660254037844387
v -0.49999999999999994 0.25 -0.13397459621556126
v -0.5 0.25 0.1339745962155611
v -0.3660254037844387 0.25 0.36602540378443854
v -0.1339745962155613 0.25 0.49999999999999994
vt 0.5176375191676121 0.7411812404161939
vt 0.44828802160274145 1
vt 0 0.7411812404161939
vt 0 0.29288749999999997
vt 0.26795 0.29288749999999997
vt 0.133975 1
vt 0.5176381947122913 0.7411815781880927
vt 0.44828743656363346 1
vt 0 0.7411815781880928
vt 0 0.29288749999999997
vt 0.26795 0.29288749999999997
vt 0.133975 1
vt 0.5 0.73205
vt 0.5 1
vt 0 0.866025
vt 0 0.29288749999999997
vt 0.26795 0.29288749999999997
vt 0.133975 1
vt 5.551115123125783e-17 0.48236248083238786
vt 0.25881875958380607 0.5517119783972586
vt 0 1
vt 0 0.29288749999999997
vt 0.26795 0.29288749999999997
vt 0.133975 1
vt 0 0.48236180528770867
vt 0.2588184218119073 0.5517125634363665
vt 8.326672684688674e-17 1
vt 0 0.29288749999999997
vt 0.26795 0.29288749999999997
vt 0.133975 1
vt 0 0.5
vt 0.26795 0.5
vt 0.133975 1
vt 0 0.29288749999999997
vt 0.26795 0.29288749999999997
vt 0.133975 1
vt 0 1
vt 0.06934949756487069 0.7411812404161939
vt 0.5176375191676121 1
vt 0 0.29288749999999997
vt 0.26795 0.29288749999999997
vt 0.133975 1
vt 0 1
vt 0.06935075814865788 0.7411815781880927
vt 0.5176381947122913 0.9999999999999999
vt 0 0.29288749999999997
vt 0.26795 0.29288749999999997
vt 0.133975 1
vt 0 1
vt 0 0.73205
vt 0.5 0.866025
vt 0 0.29288749999999997
vt 0.26795 0.29288749999999997
vt 0.133975 1
vt 0.258818759583806 1
vt 0 0.9306505024351293
vt 0.25881875958380607 0.48236248083238786
vt 0 0.29288749999999997
vt 0.26795 0.29288749999999997
vt 0.133975 1
vt 0.2588184218119073 1
vt 0 0.9306492418513421
vt 0.2588184218119072 0.48236180528770867
vt 0 0.29288749999999997
vt 0.26795 0.29288749999999997
vt 0.133975 1
vt 0.26795 1
vt 0 1
vt 0.133975 0.5
vt 0 0.29288749999999997
vt 0.26795 0.29288749999999997
vt 0.133975 1
vn -0.35355339059327373 -0.7071067811865476 -0.6123724356957947
vn 0.4472135954999578 0.4472135954999579 0.7745966692414835
vn -0.6123724356957946 -0.7071067811865475 -0.35355339059327373
vn 0.7745966692414834 0.44721359549995787 0.44721359549995787
vn -0.7071067811865476 -0.7071067811865475 0
vn 0.8944271909999161 0.447213595499958 0
vn -0.6123724356957946 -0.7071067811865475 0.35355339059327373
vn 0.7745966692414835 0.4472135954999579 -0.4472135954999579
vn -0.35355339059327384 -0.7071067811865476 0.6123724356957946
vn 0.447213595499958 0.447213595499958 -0.7745966692414834
vn -2.929832414194295e-16 -0.7071067811865475 0.7071067811865476
vn 3.7059774365775244e-16 0.44721359549995804 -0.8944271909999161
vn 0.35355339059327345 -0.7071067811865476 0.6123724356957948
vn -0.4472135954999576 0.447213595499958 -0.7745966692414837
vn 0.6123724356957947 -0.7071067811865476 0.3535533905932736
vn -0.7745966692414835 0.44721359549995787 -0.4472135954999577
vn 0.7071067811865476 -0.7071067811865476 1.4649162070971488e-16
vn -0.894427190999916 0.44721359549995787 -1.8529887182887634e-16
vn 0.6123724356957947 -0.7071067811865476 -0.35355339059327345
vn -0.7745966692414836 0.44721359549995787 0.4472135954999576
vn 0.35355339059327373 -0.7071067811865475 -0.6123724356957946
vn -0.44721359549995787 0.44721359549995787 0.7745966692414834
vn 0 -0.7071067811865475 -0.7071067811865476
vn 0 0.4472135954999579 0.894427190999916
usemtl none
f 4/1/1 3/2/1 1/3/1
f 3/4/2 4/5/2 2/6/2
f 5/7/3 4/8/3 1/9/3
f 4/10/4 5/11/4 2/12/4
f 6/13/5 5/14/5 1/15/5
f 5/16/6 6/17/6 2/18/6
f 7/19/7 6/20/7 1/21/7
f 6/22/8 7/23/8 2/24/8
f 8/25/9 7/26/9 1/27/9
f 7/28/10 8/29/10 2/30/10
f 9/31/11 8/32/11 1/33/11
f 8/34/12 9/35/12 2/36/12
f 10/37/13 9/38/13 1/39/13
f 9/40/14 10/41/14 2/42/14
f 11/43/15 10/44/15 1/45/15
f 10/46/16 11/47/16 2/48/16
f 12/49/17 11/50/17 1/51/17
f 11/52/18 12/53/18 2/54/18
f 13/55/19 12/56/19 1/57/19
f 12/58/20 13/59/20 2/60/20
f 14/61/21 13/62/21 1/63/21
f 13/64/22 14/65/22 2/66/22
f 3/67/23 14/68/23 1/69/23
f 14/70/24 3/71/24 2/72/24
o cylinder
v -1.3877787807814457e-17 0 -2.0816681711721685e-17
v -1.3877787807814457e-17 0.5 -2.0816681711721685e-17
v 0.033493649053890316 0 0.12499999999999997
v 0.033493649053890316 0.5 0.12499999999999997
v 0.09150635094610964 0 0.09150635094610965
v 0.09150635094610964 0.5 0.09150635094610965
v 0.12499999999999999 0 0.03349364905389031
v 0.12499999999999999 0.5 0.03349364905389031
v 0.12499999999999999 0 -0.033493649053890365
v 0.12499999999999999 0.5 -0.033493649053890365
v 0.09150635094610966 0 -0.09150635094610968
v 0.09150635094610966 0.5 -0.09150635094610968
v 0.03349364905389036 0 -0.125
v 0.03349364905389036 0.5 -0.125
v -0.033493649053890295 0 -0.12500000000000003
v -0.033493649053890295 0.5 -0.12500000000000003
v -0.09150635094610966 0 -0.0915063509461097
v -0.09150635094610966 0.5 -0.0915063509461097
v -0.12499999999999999 0 -0.03349364905389034
v -0.12499999999999999 0.5 -0.03349364905389034
v -0.125 0 0.033493649053890254
v -0.125 0.5 0.033493649053890254
v -0.09150635094610969 0 0.09150635094610962
v -0.09150635094610969 0.5 0.09150635094610962
v -0.03349364905389034 0 0.12499999999999997
v -0.03349364905389034 0.5 0.12499999999999997
vt 0.5176375191676121 0.7411812404161939
vt 0.44828802160274145 1
vt 0 0.7411812404161939
vt 0 0.5
vt 0.26795 0.5
vt 0.26795 1
vt 0 1
vt 0 0.48236180528770867
vt 0.2588184218119073 0.5517125634363665
vt 8.326672684688674e-17 1
vt 0.5176381947122913 0.7411815781880927
vt 0.44828743656363346 1
vt 0 0.7411815781880928
vt 0 0.5
vt 0.26795 0.5
vt 0.26795 1
vt 0 1
vt 5.551115123125783e-17 0.48236248083238786
vt 0.25881875958380607 0.5517119783972586
vt 0 1
vt 0.5 0.73205
vt 0.5 1
vt 0 0.866025
vt 0 0.5
vt 0.26795 0.5
vt 0.26795 1
vt 0 1
vt 0.5 0.73205
vt 0.5 1
vt 0 0.866025
vt 5.551115123125783e-17 0.48236248083238786
vt 0.25881875958380607 0.5517119783972586
vt 0 1
vt 0 0.5
vt 0.26795 0.5
vt 0.26795 1
vt 0 1
vt 0.5176381947122913 0.7411815781880927
vt 0.44828743656363346 1
vt 0 0.7411815781880928
vt 0 0.48236180528770867
vt 0.2588184218119073 0.5517125634363665
vt 8.326672684688674e-17 1
vt 0 0.5
vt 0.26795 0.5
vt 0.26795 1
vt 0 1
vt 0.5176375191676121 0.7411812404161939
vt 0.44828802160274145 1
vt 0 0.7411812404161939
vt 0 0.5
vt 0.26795 0.5
vt 0.133975 1
vt 0 0.5
vt 0.26795 0.5
vt 0.26795 1
vt 0 1
vt 0.26795 1
vt 0 1
vt 0.133975 0.5
vt 0 1
vt 0.06934949756487069 0.7411812404161939
vt 0.5176375191676121 1
vt 0 0.5
vt 0.26795 0.5
vt 0.26795 1
vt 0 1
vt 0.2588184218119073 1
vt 0 0.9306492418513421
vt 0.2588184218119072 0.48236180528770867
vt 0 1
vt 0.06935075814865788 0.7411815781880927
vt 0.5176381947122913 0.9999999999999999
vt 0 0.5
vt 0.26795 0.5
vt 0.26795 1
vt 0 1
vt 0.258818759583806 1
vt 0 0.9306505024351293
vt 0.25881875958380607 0.48236248083238786
vt 0 1
vt 0 0.73205
vt 0.5 0.866025
vt 0 0.5
vt 0.26795 0.5
vt 0.26795 1
vt 0 1
vt 0 1
vt 0 0.73205
vt 0.5 0.866025
vt 0.258818759583806 1
vt 0 0.9306505024351293
vt 0.25881875958380607 0.48236248083238786
vt 0 0.5
vt 0.26795 0.5
vt 0.26795 1
vt 0 1
vt 0 1
vt 0.06935075814865788 0.7411815781880927
vt 0.5176381947122913 0.9999999999999999
vt 0.2588184218119073 1
vt 0 0.9306492418513421
vt 0.2588184218119072 0.48236180528770867
vt 0 0.5
vt 0.26795 0.5
vt 0.26795 1
vt 0 1
vt 0 1
vt 0.06934949756487069 0.7411812404161939
vt 0.5176375191676121 1
vt 0.26795 1
vt 0 1
vt 0.133975 0.5
vt 0 0.5
vt 0.26795 0.5
vt 0.26795 1
vt 0 1
vt 0 0.5
vt 0.26795 0.5
vt 0.133975 1
vn 0 -1 0
vn 0.4999999999999999 0 0.8660254037844388
vn 0 1 0
vn 0 -1 0
vn 0.8660254037844388 0 0.5000000000000001
vn 0 1 0
vn 0 -1 0
vn 1 0 0
vn 0 1 0
vn 0 -1 0
vn 0.8660254037844387 0 -0.4999999999999999
vn 0 1 0
vn 0 -1 0
vn 0.5 0 -0.8660254037844388
vn 0 1 0
vn 0 -1 0
vn 4.143408735633879e-16 0 -1
vn 0 1 0
vn 0 -1 0
vn -0.4999999999999996 0 -0.8660254037844389
vn 0 1 0
vn 0 -1 0
vn -0.8660254037844389 0 -0.4999999999999996
vn 0 1 0
vn 0 -1 0
vn -1 0 -2.0717043678169412e-16
vn 0 1 0
vn 0 -1 0
vn -0.8660254037844392 0 0.4999999999999995
vn 0 1 0
vn 0 -1 0
vn -0.4999999999999999 0 0.8660254037844386
vn 0 1 0
vn 0 -1 0
vn 0 0 1
vn 0 1 0
usemtl none
f 19/73/25 17/74/25 15/75/25
f 17/76/26 19/77/26 20/78/26 18/79/26
f 18/80/27 20/81/27 16/82/27
f 21/83/28 19/84/28 15/85/28
f 19/86/29 21/87/29 22/88/29 20/89/29
f 20/90/30 22/91/30 16/92/30
f 23/93/31 21/94/31 15/95/31
f 21/96/32 23/97/32 24/98/32 22/99/32
f 22/100/33 24/101/33 16/102/33
f 25/103/34 23/104/34 15/105/34
f 23/106/35 25/107/35 26/108/35 24/109/35
f 24/110/36 26/111/36 16/112/36
f 27/113/37 25/114/37 15/115/37
f 25/116/38 27/117/38 28/118/38 26/119/38
f 26/120/39 28/121/39 16/122/39
f 29/123/40 27/124/40 15/125/40
f 27/126/41 29/127/41 30/128/41 28/129/41
f 28/130/42 30/131/42 16/132/42
f 31/133/43 29/134/43 15/135/43
f 29/136/44 31/137/44 32/138/44 30/139/44
f 30/140/45 32/141/45 16/142/45
f 33/143/46 31/144/46 15/145/46
f 31/146/47 33/147/47 34/148/47 32/149/47
f 32/150/48 34/151/48 16/152/48
f 35/153/49 33/154/49 15/155/49
f 33/156/50 35/157/50 36/158/50 34/159/50
f 34/160/51 36/161/51 16/162/51
f 37/163/52 35/164/52 15/165/52
f 35/166/53 37/167/53 38/168/53 36/169/53
f 36/170/54 38/171/54 16/172/54
f 39/173/55 37/174/55 15/175/55
f 37/176/56 39/177/56 40/178/56 38/179/56
f 38/180/57 40/181/57 16/182/57
f 17/183/58 39/184/58 15/185/58
f 39/186/59 17/187/59 18/188/59 40/189/59
f 40/190/60 18/191/60 16/192/60